<?xml version="1.0" encoding="UTF-8" standalone="no"?>
<!-- Created with Inkscape (http://www.inkscape.org/) -->

<svg
   width="48"
   height="48"
   id="svg6826"
   sodipodi:version="0.32"
   inkscape:version="1.2.2 (b0a8486541, 2022-12-01)"
   version="1.0"
   sodipodi:docname="acbfa.svg"
   inkscape:output_extension="org.inkscape.output.svg.inkscape"
   inkscape:export-filename="acbfa.png"
   inkscape:export-xdpi="1024"
   inkscape:export-ydpi="1024"
   xmlns:inkscape="http://www.inkscape.org/namespaces/inkscape"
   xmlns:sodipodi="http://sodipodi.sourceforge.net/DTD/sodipodi-0.dtd"
   xmlns:xlink="http://www.w3.org/1999/xlink"
   xmlns="http://www.w3.org/2000/svg"
   xmlns:svg="http://www.w3.org/2000/svg"
   xmlns:rdf="http://www.w3.org/1999/02/22-rdf-syntax-ns#"
   xmlns:cc="http://creativecommons.org/ns#"
   xmlns:dc="http://purl.org/dc/elements/1.1/">
  <defs
     id="defs6828">
    <pattern
       inkscape:collect="always"
       xlink:href="#pattern3956"
       id="pattern3112"
       patternTransform="translate(6,19)" />
    <linearGradient
       id="linearGradient4008">
      <stop
         style="stop-color: rgb(255, 249, 232); stop-opacity: 1;"
         offset="0"
         id="stop4010" />
      <stop
         style="stop-color:#a7cc5c;stop-opacity:1"
         offset="1"
         id="stop4012" />
    </linearGradient>
    <inkscape:perspective
       sodipodi:type="inkscape:persp3d"
       inkscape:vp_x="0 : 24 : 1"
       inkscape:vp_y="0 : 1000 : 0"
       inkscape:vp_z="48 : 24 : 1"
       inkscape:persp3d-origin="24 : 16 : 1"
       id="perspective183" />
    <linearGradient
       id="linearGradient6814"
       inkscape:collect="always">
      <stop
         id="stop6816"
         offset="0"
         style="stop-color:#a7cc5c;stop-opacity:1" />
      <stop
         id="stop6818"
         offset="1"
         style="stop-color:#a7cc5c;stop-opacity:0" />
    </linearGradient>
    <radialGradient
       inkscape:collect="always"
       xlink:href="#linearGradient6814"
       id="radialGradient6498"
       gradientUnits="userSpaceOnUse"
       gradientTransform="matrix(5.5457,0,0,5.2229,-825.952,-246.098)"
       cx="182.12123"
       cy="58.899124"
       fx="182.12123"
       fy="58.899124"
       r="2.3375302" />
    <linearGradient
       inkscape:collect="always"
       id="linearGradient6320">
      <stop
         style="stop-color: rgb(255, 255, 255); stop-opacity: 1;"
         offset="0"
         id="stop6322" />
      <stop
         style="stop-color: rgb(255, 255, 255); stop-opacity: 0;"
         offset="1"
         id="stop6324" />
    </linearGradient>
    <radialGradient
       inkscape:collect="always"
       xlink:href="#linearGradient6320"
       id="radialGradient6496"
       gradientUnits="userSpaceOnUse"
       gradientTransform="matrix(1.30576,0.343183,-2.81145,10.6971,110.55,-617.947)"
       cx="173.32843"
       cy="58.523705"
       fx="173.32843"
       fy="58.523705"
       r="4.8357934" />
    <linearGradient
       id="linearGradient6820"
       inkscape:collect="always">
      <stop
         id="stop6822"
         offset="0"
         style="stop-color:#244206;stop-opacity:1" />
      <stop
         id="stop6824"
         offset="1"
         style="stop-color: rgb(0, 0, 0); stop-opacity: 1;" />
    </linearGradient>
    <radialGradient
       inkscape:collect="always"
       xlink:href="#linearGradient6820"
       id="radialGradient6494"
       gradientUnits="userSpaceOnUse"
       gradientTransform="matrix(0.9755308,0.2659644,-1.46191,3.5985779,257.06371,-527.35152)"
       cx="318.60828"
       cy="170.59293"
       fx="318.60828"
       fy="170.59293"
       r="0.82419754" />
    <radialGradient
       inkscape:collect="always"
       xlink:href="#linearGradient6537"
       id="radialGradient6492"
       gradientUnits="userSpaceOnUse"
       gradientTransform="matrix(1,0,0,0.654798,0,24.0225)"
       cx="177.5556"
       cy="69.5896"
       fx="177.5556"
       fy="69.5896"
       r="9.4960012" />
    <radialGradient
       inkscape:collect="always"
       xlink:href="#linearGradient6537"
       id="radialGradient6490"
       gradientUnits="userSpaceOnUse"
       gradientTransform="matrix(1,0,0,0.654798,0,24.0225)"
       cx="177.5556"
       cy="69.5896"
       fx="177.5556"
       fy="69.5896"
       r="9.4960012" />
    <linearGradient
       id="linearGradient6591">
      <stop
         id="stop6593"
         offset="0"
         style="stop-color: rgb(255, 249, 232); stop-opacity: 1;" />
      <stop
         id="stop6595"
         offset="1"
         style="stop-color: rgb(254, 209, 99); stop-opacity: 0;" />
    </linearGradient>
    <radialGradient
       inkscape:collect="always"
       xlink:href="#linearGradient6591"
       id="radialGradient6481"
       gradientUnits="userSpaceOnUse"
       gradientTransform="matrix(5.5457,0,0,5.2229,-825.952,-246.098)"
       cx="182.12123"
       cy="58.899124"
       fx="182.12123"
       fy="58.899124"
       r="2.3375301" />
    <linearGradient
       inkscape:collect="always"
       id="linearGradient6597">
      <stop
         style="stop-color: rgb(238, 238, 236); stop-opacity: 0;"
         offset="0"
         id="stop6599" />
      <stop
         id="stop6605"
         offset="0.52820206"
         style="stop-color: rgb(255, 255, 255); stop-opacity: 1;" />
      <stop
         style="stop-color: rgb(238, 238, 236); stop-opacity: 0;"
         offset="1"
         id="stop6601" />
    </linearGradient>
    <linearGradient
       inkscape:collect="always"
       xlink:href="#linearGradient6597"
       id="linearGradient6479"
       gradientUnits="userSpaceOnUse"
       x1="169.51371"
       y1="55.164879"
       x2="180.91669"
       y2="57.766956" />
    <linearGradient
       id="linearGradient6808"
       inkscape:collect="always">
      <stop
         id="stop6810"
         offset="0"
         style="stop-color:#244206;stop-opacity:1" />
      <stop
         id="stop6812"
         offset="1"
         style="stop-color: rgb(0, 0, 0); stop-opacity: 1;" />
    </linearGradient>
    <radialGradient
       inkscape:collect="always"
       xlink:href="#linearGradient6808"
       id="radialGradient6477"
       gradientUnits="userSpaceOnUse"
       gradientTransform="matrix(0.947477,0.319825,-1.24836,3.69825,229.696,-561.607)"
       cx="318.60828"
       cy="170.59293"
       fx="318.60828"
       fy="170.59293"
       r="0.82419754" />
    <radialGradient
       inkscape:collect="always"
       xlink:href="#linearGradient6537"
       id="radialGradient6475"
       gradientUnits="userSpaceOnUse"
       gradientTransform="matrix(1,0,0,0.654798,0,24.0225)"
       cx="177.5556"
       cy="69.5896"
       fx="177.5556"
       fy="69.5896"
       r="9.4960012" />
    <linearGradient
       inkscape:collect="always"
       id="linearGradient6537">
      <stop
         style="stop-color: rgb(0, 0, 0); stop-opacity: 1;"
         offset="0"
         id="stop6539" />
      <stop
         style="stop-color: rgb(0, 0, 0); stop-opacity: 0;"
         offset="1"
         id="stop6541" />
    </linearGradient>
    <radialGradient
       inkscape:collect="always"
       xlink:href="#linearGradient6537"
       id="radialGradient6473"
       gradientUnits="userSpaceOnUse"
       gradientTransform="matrix(1,0,0,0.654798,0,24.0225)"
       cx="177.5556"
       cy="69.5896"
       fx="177.5556"
       fy="69.5896"
       r="9.4960012" />
    <linearGradient
       inkscape:collect="always"
       id="linearGradient11579">
      <stop
         style="stop-color: rgb(0, 0, 0); stop-opacity: 1;"
         offset="0"
         id="stop11581" />
      <stop
         style="stop-color: rgb(0, 0, 0); stop-opacity: 0;"
         offset="1"
         id="stop11583" />
    </linearGradient>
    <clipPath
       clipPathUnits="userSpaceOnUse"
       id="clipPath11530">
      <path
         style="overflow: visible; marker: none; opacity: 1; fill: none; fill-opacity: 1; fill-rule: nonzero; stroke: rgb(0, 0, 0); stroke-width: 0.0875215; stroke-linecap: butt; stroke-linejoin: miter; stroke-miterlimit: 4; stroke-dasharray: none; stroke-dashoffset: 0pt; stroke-opacity: 1; visibility: visible; display: inline;"
         d="M 118.625,209.5 C 121.20833,209.11227 123.79167,208.98938 126.375,210.25 C 126.375,210.25 126.65709,215.73132 124.75,215.875 C 122.37173,216.05418 118.625,209.5 118.625,209.5 z"
         id="path11532"
         sodipodi:nodetypes="ccsc" />
    </clipPath>
    <radialGradient
       inkscape:collect="always"
       xlink:href="#linearGradient12495"
       id="radialGradient5965"
       gradientUnits="userSpaceOnUse"
       gradientTransform="matrix(1,0,0,2.64453,0,-212.81)"
       cx="175.625"
       cy="129.77148"
       fx="175.625"
       fy="129.77148"
       r="5.625" />
    <radialGradient
       inkscape:collect="always"
       xlink:href="#linearGradient12477"
       id="radialGradient5963"
       gradientUnits="userSpaceOnUse"
       gradientTransform="matrix(0.529412,-2.51372e-7,4.60027e-7,0.7,81.1764,34.5)"
       cx="172.5"
       cy="104.07143"
       fx="172.5"
       fy="104.07143"
       r="8.5" />
    <radialGradient
       inkscape:collect="always"
       xlink:href="#linearGradient12297"
       id="radialGradient5961"
       gradientUnits="userSpaceOnUse"
       gradientTransform="matrix(1,0,0,0.492308,0,89.6458)"
       cx="142.75"
       cy="172.86737"
       fx="142.75"
       fy="172.86737"
       r="16.25" />
    <linearGradient
       inkscape:collect="always"
       id="linearGradient12495">
      <stop
         style="stop-color: rgb(97, 97, 97); stop-opacity: 1;"
         offset="0"
         id="stop12497" />
      <stop
         style="stop-color: rgb(97, 97, 97); stop-opacity: 0;"
         offset="1"
         id="stop12499" />
    </linearGradient>
    <radialGradient
       inkscape:collect="always"
       xlink:href="#linearGradient12495"
       id="radialGradient5959"
       gradientUnits="userSpaceOnUse"
       gradientTransform="matrix(1,0,0,2.64453,0,-212.81)"
       cx="175.625"
       cy="129.77148"
       fx="175.625"
       fy="129.77148"
       r="5.625" />
    <linearGradient
       inkscape:collect="always"
       id="linearGradient12477">
      <stop
         style="stop-color: rgb(97, 97, 97); stop-opacity: 1;"
         offset="0"
         id="stop12479" />
      <stop
         style="stop-color: rgb(0, 0, 0); stop-opacity: 1;"
         offset="1"
         id="stop12481" />
    </linearGradient>
    <radialGradient
       inkscape:collect="always"
       xlink:href="#linearGradient12477"
       id="radialGradient5957"
       gradientUnits="userSpaceOnUse"
       gradientTransform="matrix(0.529412,-2.51372e-7,4.60027e-7,0.7,81.1764,34.5)"
       cx="172.5"
       cy="104.07143"
       fx="172.5"
       fy="104.07143"
       r="8.5" />
    <linearGradient
       inkscape:collect="always"
       id="linearGradient12297">
      <stop
         style="stop-color: rgb(253, 252, 188); stop-opacity: 1;"
         offset="0"
         id="stop12299" />
      <stop
         style="stop-color: rgb(253, 252, 188); stop-opacity: 0;"
         offset="1"
         id="stop12301" />
    </linearGradient>
    <radialGradient
       inkscape:collect="always"
       xlink:href="#linearGradient12297"
       id="radialGradient5955"
       gradientUnits="userSpaceOnUse"
       gradientTransform="matrix(1,0,0,0.492308,0,89.6458)"
       cx="142.75"
       cy="172.86737"
       fx="142.75"
       fy="172.86737"
       r="16.25" />
    <linearGradient
       id="linearGradient6499">
      <stop
         style="stop-color: rgb(255, 255, 255); stop-opacity: 1;"
         offset="0"
         id="stop6501" />
      <stop
         style="stop-color:#a7cc5c;stop-opacity:1"
         offset="1"
         id="stop6503" />
    </linearGradient>
    <radialGradient
       inkscape:collect="always"
       xlink:href="#linearGradient6499"
       id="radialGradient6505"
       gradientUnits="userSpaceOnUse"
       gradientTransform="matrix(1.411,0,-5.12856e-5,1.52318,-129.589,-88.5081)"
       cx="315.07254"
       cy="169.69044"
       fx="315.07254"
       fy="169.69044"
       r="8.6255913" />
    <filter
       inkscape:collect="always"
       id="filter6049"
       x="-0.022893523"
       y="-0.039495215"
       width="1.045787"
       height="1.0789904">
      <feGaussianBlur
         inkscape:collect="always"
         stdDeviation="1.5641252"
         id="feGaussianBlur6051" />
    </filter>
    <linearGradient
       inkscape:collect="always"
       id="linearGradient6005">
      <stop
         style="stop-color: rgb(255, 255, 255); stop-opacity: 1;"
         offset="0"
         id="stop6007" />
      <stop
         style="stop-color: rgb(255, 255, 255); stop-opacity: 0;"
         offset="1"
         id="stop6009" />
    </linearGradient>
    <radialGradient
       inkscape:collect="always"
       xlink:href="#linearGradient6005"
       id="radialGradient8581"
       gradientUnits="userSpaceOnUse"
       gradientTransform="matrix(1,0,0,0.579653,0,80.5851)"
       cx="140.19348"
       cy="273.69705"
       fx="140.19348"
       fy="273.69705"
       r="81.986082" />
    <clipPath
       clipPathUnits="userSpaceOnUse"
       id="clipPath5690">
      <path
         sodipodi:type="inkscape:offset"
         inkscape:radius="-0.11874371"
         inkscape:original="M 24 0.57226562 A 23.42824 23.428238 0 0 0 0.57226562 24 A 23.42824 23.428238 0 0 0 24 47.427734 A 23.42824 23.428238 0 0 0 47.427734 24 A 23.42824 23.428238 0 0 0 24 0.57226562 z "
         xlink:href="#path6824"
         style="display:inline;overflow:visible;visibility:visible;opacity:1;fill:#e9b96e;fill-opacity:1;fill-rule:nonzero;stroke:url(#radialGradient5694) #000000;stroke-width:0.618794;stroke-linecap:round;stroke-linejoin:round;stroke-miterlimit:4;stroke-dasharray:none;stroke-dashoffset:0;stroke-opacity:1;marker:none"
         id="path5692"
         inkscape:href="#path6824"
         d="M 24,0.61914062 C 21.33209,0.61910288 18.666007,1.1489742 16.201172,2.1699219 13.736337,3.1908695 11.474388,4.7013932 9.5878906,6.5878906 7.7013932,8.4743881 6.1908695,10.736337 5.1699219,13.201172 4.1489742,15.666007 3.6191029,18.33209 3.6191406,21 c -3.77e-5,2.66791 0.5298336,5.333993 1.5507813,7.798828 1.0209476,2.464835 2.5314713,4.726784 4.4179687,6.613281 1.8864974,1.886498 4.1484464,3.397021 6.6132814,4.417969 2.464835,1.020948 5.130918,1.550819 7.798828,1.550781 2.66791,3.8e-5 5.333993,-0.529833 7.798828,-1.550781 2.464835,-1.020948 4.726784,-2.531471 6.613281,-4.417969 1.886498,-1.886497 3.397021,-4.148446 4.417969,-6.613281 C 43.851026,26.333993 44.380897,23.66791 44.380859,21 44.380897,18.33209 43.851026,15.666007 42.830078,13.201172 41.80913,10.736337 40.298607,8.4743881 38.412109,6.5878906 36.525612,4.7013932 34.263663,3.1908695 31.798828,2.1699219 29.333993,1.1489742 26.66791,0.61910288 24,0.61914062 Z"
         transform="matrix(0.70852,0,0,0.709344,93.475264,55.06603)" />
    </clipPath>
    <linearGradient
       id="linearGradient6782">
      <stop
         style="stop-color:#e8e4fc;stop-opacity:1;"
         offset="0"
         id="stop6784" />
      <stop
         id="stop6786"
         offset="0.69999999"
         style="stop-color:#8a82f5;stop-opacity:1;" />
      <stop
         style="stop-color:#5246f2;stop-opacity:1;"
         offset="1"
         id="stop6788" />
    </linearGradient>
    <radialGradient
       inkscape:collect="always"
       xlink:href="#linearGradient6782"
       id="radialGradient5896"
       gradientUnits="userSpaceOnUse"
       gradientTransform="matrix(2.7747549,0,0,3.386738,-849.95693,-574.81506)"
       cx="314.96875"
       cy="174.44357"
       fx="314.96875"
       fy="174.44357"
       r="9.03125" />
    <radialGradient
       inkscape:collect="always"
       xlink:href="#linearGradient6499"
       id="radialGradient2610"
       gradientUnits="userSpaceOnUse"
       gradientTransform="matrix(1.411,0,-5.12856e-5,1.52318,-129.589,-88.5081)"
       cx="315.07254"
       cy="169.69044"
       fx="315.07254"
       fy="169.69044"
       r="8.6255913" />
    <radialGradient
       inkscape:collect="always"
       xlink:href="#linearGradient12297"
       id="radialGradient2615"
       gradientUnits="userSpaceOnUse"
       gradientTransform="matrix(1,0,0,0.492308,0,89.6458)"
       cx="142.75"
       cy="172.86737"
       fx="142.75"
       fy="172.86737"
       r="16.25" />
    <radialGradient
       inkscape:collect="always"
       xlink:href="#linearGradient12477"
       id="radialGradient2617"
       gradientUnits="userSpaceOnUse"
       gradientTransform="matrix(0.529412,-2.51372e-7,4.60027e-7,0.7,81.1764,34.5)"
       cx="172.5"
       cy="104.07143"
       fx="172.5"
       fy="104.07143"
       r="8.5" />
    <radialGradient
       inkscape:collect="always"
       xlink:href="#linearGradient12495"
       id="radialGradient2619"
       gradientUnits="userSpaceOnUse"
       gradientTransform="matrix(1,0,0,2.64453,0,-212.81)"
       cx="175.625"
       cy="129.77148"
       fx="175.625"
       fy="129.77148"
       r="5.625" />
    <radialGradient
       inkscape:collect="always"
       xlink:href="#linearGradient12297"
       id="radialGradient2621"
       gradientUnits="userSpaceOnUse"
       gradientTransform="matrix(1,0,0,0.492308,0,89.6458)"
       cx="142.75"
       cy="172.86737"
       fx="142.75"
       fy="172.86737"
       r="16.25" />
    <radialGradient
       inkscape:collect="always"
       xlink:href="#linearGradient12477"
       id="radialGradient2623"
       gradientUnits="userSpaceOnUse"
       gradientTransform="matrix(0.529412,-2.51372e-7,4.60027e-7,0.7,81.1764,34.5)"
       cx="172.5"
       cy="104.07143"
       fx="172.5"
       fy="104.07143"
       r="8.5" />
    <radialGradient
       inkscape:collect="always"
       xlink:href="#linearGradient12495"
       id="radialGradient2625"
       gradientUnits="userSpaceOnUse"
       gradientTransform="matrix(1,0,0,2.64453,0,-212.81)"
       cx="175.625"
       cy="129.77148"
       fx="175.625"
       fy="129.77148"
       r="5.625" />
    <radialGradient
       inkscape:collect="always"
       xlink:href="#linearGradient12297"
       id="radialGradient2650"
       gradientUnits="userSpaceOnUse"
       gradientTransform="matrix(1,0,0,0.492308,0,89.6458)"
       cx="142.75"
       cy="172.86737"
       fx="142.75"
       fy="172.86737"
       r="16.25" />
    <radialGradient
       inkscape:collect="always"
       xlink:href="#linearGradient12477"
       id="radialGradient2652"
       gradientUnits="userSpaceOnUse"
       gradientTransform="matrix(0.529412,-2.51372e-7,4.60027e-7,0.7,81.1764,34.5)"
       cx="172.5"
       cy="104.07143"
       fx="172.5"
       fy="104.07143"
       r="8.5" />
    <radialGradient
       inkscape:collect="always"
       xlink:href="#linearGradient12495"
       id="radialGradient2654"
       gradientUnits="userSpaceOnUse"
       gradientTransform="matrix(1,0,0,2.64453,0,-212.81)"
       cx="175.625"
       cy="129.77148"
       fx="175.625"
       fy="129.77148"
       r="5.625" />
    <radialGradient
       inkscape:collect="always"
       xlink:href="#linearGradient12297"
       id="radialGradient2656"
       gradientUnits="userSpaceOnUse"
       gradientTransform="matrix(1,0,0,0.492308,0,89.6458)"
       cx="142.75"
       cy="172.86737"
       fx="142.75"
       fy="172.86737"
       r="16.25" />
    <radialGradient
       inkscape:collect="always"
       xlink:href="#linearGradient12477"
       id="radialGradient2658"
       gradientUnits="userSpaceOnUse"
       gradientTransform="matrix(0.529412,-2.51372e-7,4.60027e-7,0.7,81.1764,34.5)"
       cx="172.5"
       cy="104.07143"
       fx="172.5"
       fy="104.07143"
       r="8.5" />
    <radialGradient
       inkscape:collect="always"
       xlink:href="#linearGradient12495"
       id="radialGradient2660"
       gradientUnits="userSpaceOnUse"
       gradientTransform="matrix(1,0,0,2.64453,0,-212.81)"
       cx="175.625"
       cy="129.77148"
       fx="175.625"
       fy="129.77148"
       r="5.625" />
    <linearGradient
       inkscape:collect="always"
       xlink:href="#linearGradient11579"
       id="linearGradient2748"
       gradientUnits="userSpaceOnUse"
       x1="182.1021"
       y1="187.81308"
       x2="183.49422"
       y2="191.96733"
       gradientTransform="matrix(8.75215e-2,0,0,8.75215e-2,302.93664,165.20034)" />
    <linearGradient
       inkscape:collect="always"
       xlink:href="#linearGradient11579"
       id="linearGradient2750"
       gradientUnits="userSpaceOnUse"
       x1="182.1021"
       y1="187.81308"
       x2="183.49422"
       y2="191.96733"
       gradientTransform="matrix(8.75215e-2,0,0,8.75215e-2,302.92809,165.21598)" />
    <radialGradient
       inkscape:collect="always"
       xlink:href="#linearGradient12477"
       id="radialGradient2776"
       gradientUnits="userSpaceOnUse"
       gradientTransform="matrix(0.529412,-2.51372e-7,4.60027e-7,0.7,81.1764,34.5)"
       cx="172.5"
       cy="104.07143"
       fx="172.5"
       fy="104.07143"
       r="8.5" />
    <radialGradient
       inkscape:collect="always"
       xlink:href="#linearGradient12495"
       id="radialGradient2778"
       gradientUnits="userSpaceOnUse"
       gradientTransform="matrix(1,0,0,2.64453,0,-212.81)"
       cx="175.625"
       cy="129.77148"
       fx="175.625"
       fy="129.77148"
       r="5.625" />
    <radialGradient
       inkscape:collect="always"
       xlink:href="#linearGradient12477"
       id="radialGradient2788"
       gradientUnits="userSpaceOnUse"
       gradientTransform="matrix(0.529412,-2.51372e-7,4.60027e-7,0.7,81.1764,34.5)"
       cx="172.5"
       cy="104.07143"
       fx="172.5"
       fy="104.07143"
       r="8.5" />
    <radialGradient
       inkscape:collect="always"
       xlink:href="#linearGradient12495"
       id="radialGradient2790"
       gradientUnits="userSpaceOnUse"
       gradientTransform="matrix(1,0,0,2.64453,0,-212.81)"
       cx="175.625"
       cy="129.77148"
       fx="175.625"
       fy="129.77148"
       r="5.625" />
    <radialGradient
       inkscape:collect="always"
       xlink:href="#linearGradient12297"
       id="radialGradient2798"
       gradientUnits="userSpaceOnUse"
       gradientTransform="matrix(1,0,0,0.492308,0,89.6458)"
       cx="142.75"
       cy="172.86737"
       fx="142.75"
       fy="172.86737"
       r="16.25" />
    <radialGradient
       inkscape:collect="always"
       xlink:href="#linearGradient12297"
       id="radialGradient2806"
       gradientUnits="userSpaceOnUse"
       gradientTransform="matrix(1,0,0,0.492308,0,89.6458)"
       cx="142.75"
       cy="172.86737"
       fx="142.75"
       fy="172.86737"
       r="16.25" />
    <radialGradient
       inkscape:collect="always"
       xlink:href="#linearGradient6005"
       id="radialGradient3891"
       gradientUnits="userSpaceOnUse"
       gradientTransform="matrix(1,0,0,0.579653,0,80.5851)"
       cx="140.19348"
       cy="273.69705"
       fx="140.19348"
       fy="273.69705"
       r="81.986082" />
    <radialGradient
       inkscape:collect="always"
       xlink:href="#linearGradient12297"
       id="radialGradient3895"
       gradientUnits="userSpaceOnUse"
       gradientTransform="matrix(1,0,0,0.492308,0,89.6458)"
       cx="142.75"
       cy="172.86737"
       fx="142.75"
       fy="172.86737"
       r="16.25" />
    <radialGradient
       inkscape:collect="always"
       xlink:href="#linearGradient6537"
       id="radialGradient3998"
       gradientUnits="userSpaceOnUse"
       gradientTransform="matrix(1,0,0,0.654798,0,24.0225)"
       cx="177.5556"
       cy="69.5896"
       fx="177.5556"
       fy="69.5896"
       r="9.4960012" />
    <radialGradient
       inkscape:collect="always"
       xlink:href="#linearGradient6537"
       id="radialGradient4000"
       gradientUnits="userSpaceOnUse"
       gradientTransform="matrix(1,0,0,0.654798,0,24.0225)"
       cx="177.5556"
       cy="69.5896"
       fx="177.5556"
       fy="69.5896"
       r="9.4960012" />
    <radialGradient
       inkscape:collect="always"
       xlink:href="#linearGradient6808"
       id="radialGradient4002"
       gradientUnits="userSpaceOnUse"
       gradientTransform="matrix(0.9215132,0.2781314,-1.3177176,3.5229476,249.73513,-518.24733)"
       cx="318.60828"
       cy="170.59293"
       fx="318.60828"
       fy="170.59293"
       r="0.82419754" />
    <linearGradient
       inkscape:collect="always"
       xlink:href="#linearGradient6597"
       id="linearGradient4004"
       gradientUnits="userSpaceOnUse"
       x1="169.51371"
       y1="55.164879"
       x2="180.91669"
       y2="57.766956" />
    <radialGradient
       inkscape:collect="always"
       xlink:href="#linearGradient4008"
       id="radialGradient4006"
       gradientUnits="userSpaceOnUse"
       gradientTransform="matrix(5.5457,0,0,5.2229,-825.952,-246.098)"
       cx="182.12123"
       cy="58.899124"
       fx="182.12123"
       fy="58.899124"
       r="2.3375301" />
    <linearGradient
       inkscape:collect="always"
       xlink:href="#linearGradient11579"
       id="linearGradient2592"
       gradientUnits="userSpaceOnUse"
       gradientTransform="matrix(8.75215e-2,0,0,8.75215e-2,302.93664,165.20034)"
       x1="182.1021"
       y1="187.81308"
       x2="183.49422"
       y2="191.96733" />
    <linearGradient
       inkscape:collect="always"
       xlink:href="#linearGradient11579"
       id="linearGradient2594"
       gradientUnits="userSpaceOnUse"
       gradientTransform="matrix(8.75215e-2,0,0,8.75215e-2,302.92809,165.21598)"
       x1="182.1021"
       y1="187.81308"
       x2="183.49422"
       y2="191.96733" />
    <radialGradient
       inkscape:collect="always"
       xlink:href="#linearGradient12477"
       id="radialGradient2596"
       gradientUnits="userSpaceOnUse"
       gradientTransform="matrix(0.529412,-2.51372e-7,4.60027e-7,0.7,81.1764,34.5)"
       cx="172.5"
       cy="104.07143"
       fx="172.5"
       fy="104.07143"
       r="8.5" />
    <radialGradient
       inkscape:collect="always"
       xlink:href="#linearGradient12495"
       id="radialGradient2598"
       gradientUnits="userSpaceOnUse"
       gradientTransform="matrix(1,0,0,2.64453,0,-212.81)"
       cx="175.625"
       cy="129.77148"
       fx="175.625"
       fy="129.77148"
       r="5.625" />
    <radialGradient
       inkscape:collect="always"
       xlink:href="#linearGradient12477"
       id="radialGradient2600"
       gradientUnits="userSpaceOnUse"
       gradientTransform="matrix(0.529412,-2.51372e-7,4.60027e-7,0.7,81.1764,34.5)"
       cx="172.5"
       cy="104.07143"
       fx="172.5"
       fy="104.07143"
       r="8.5" />
    <radialGradient
       inkscape:collect="always"
       xlink:href="#linearGradient12495"
       id="radialGradient2602"
       gradientUnits="userSpaceOnUse"
       gradientTransform="matrix(1,0,0,2.64453,0,-212.81)"
       cx="175.625"
       cy="129.77148"
       fx="175.625"
       fy="129.77148"
       r="5.625" />
    <pattern
       patternUnits="userSpaceOnUse"
       width="34.149414"
       height="10.301758"
       patternTransform="translate(6.2685547,18.783203)"
       id="pattern3956">
      <text
         id="text3921"
         y="9.2167969"
         x="-0.26855469"
         style="font-style:normal;font-variant:normal;font-weight:bold;font-stretch:normal;line-height:0%;font-family:'A.C.M.E. Secret Agent';-inkscape-font-specification:'Sans Bold';letter-spacing:0px;word-spacing:0px;fill:#000000;fill-opacity:1;stroke:none"
         xml:space="preserve"><tspan
           y="9.2167969"
           x="-0.26855469"
           id="tspan3923"
           sodipodi:role="line"
           style="font-size:11px;line-height:1.25">ACBF</tspan></text>
    </pattern>
  </defs>
  <sodipodi:namedview
     id="base"
     pagecolor="#ffffff"
     bordercolor="#666666"
     borderopacity="1.0"
     gridtolerance="10000"
     guidetolerance="10"
     objecttolerance="10"
     inkscape:pageopacity="0.0"
     inkscape:pageshadow="2"
     inkscape:zoom="11.387365"
     inkscape:cx="9.3085626"
     inkscape:cy="21.207716"
     inkscape:document-units="px"
     inkscape:current-layer="layer1"
     showgrid="true"
     inkscape:window-width="2504"
     inkscape:window-height="1371"
     inkscape:window-x="0"
     inkscape:window-y="0"
     inkscape:window-maximized="1"
     inkscape:showpageshadow="2"
     inkscape:pagecheckerboard="0"
     inkscape:deskcolor="#d1d1d1">
    <inkscape:grid
       type="xygrid"
       id="grid6836"
       visible="true"
       enabled="true" />
  </sodipodi:namedview>
  <metadata
     id="metadata6831">
    <rdf:RDF>
      <cc:Work
         rdf:about="">
        <dc:format>image/svg+xml</dc:format>
        <dc:type
           rdf:resource="http://purl.org/dc/dcmitype/StillImage" />
        <dc:title />
      </cc:Work>
    </rdf:RDF>
  </metadata>
  <g
     inkscape:label="Layer 1"
     inkscape:groupmode="layer"
     id="layer1">
    <ellipse
       id="path6824"
       style="display:inline;overflow:visible;visibility:visible;fill:url(#radialGradient5896);fill-opacity:1;fill-rule:nonzero;stroke:#422b0c;stroke-width:1.14352;stroke-linecap:round;stroke-linejoin:round;stroke-miterlimit:4;stroke-dasharray:none;stroke-dashoffset:0;stroke-opacity:1;marker:none"
       cx="24"
       cy="23.999998"
       rx="23.42824"
       ry="23.428238" />
    <path
       id="path6840"
       transform="matrix(0.24747863,0,0,0.22801095,-10.976521,-8.2623643)"
       d="M 58.21875,144.1875 C 56.619587,271.15068 224.4504,267.23521 222.15625,154.40625 219.98855,261.50245 60.603201,264.86446 58.25,144.1875 Z"
       style="display:inline;opacity:0.399015;fill:url(#radialGradient3891);fill-opacity:1;fill-rule:evenodd;stroke:none;stroke-width:1px;stroke-linecap:butt;stroke-linejoin:miter;stroke-opacity:1;filter:url(#filter6049)" />
    <path
       inkscape:connector-curvature="0"
       id="path3112"
       style="font-style:normal;font-variant:normal;font-weight:bold;font-stretch:normal;font-size:11.8841px;line-height:125%;font-family:'A.C.M.E. Secret Agent';-inkscape-font-specification:'Sans Bold';letter-spacing:0px;word-spacing:0px;fill:#000000;fill-opacity:1;stroke:none;stroke-width:1.14286"
       d="m 12.525458,23.521382 c 0.313197,0.170759 0.4698,0.525738 0.46981,1.064944 -10e-6,0.629085 -0.182713,1.051466 -0.548111,1.267147 -0.0174,0.476307 -0.03482,0.948117 -0.05221,1.41543 -0.03482,0.557188 -0.09136,1.024503 -0.169654,1.401951 -0.05221,0.278594 -0.165312,0.543705 -0.339307,0.795337 -0.217514,0.314541 -0.452417,0.471809 -0.704713,0.471809 -0.400216,0 -0.60902,-0.305552 -0.626413,-0.916659 -8e-6,-0.02696 0.03478,-0.381941 0.1044,-1.064942 0.06959,-0.65604 0.126144,-1.334545 0.169654,-2.035526 -1.2267313,0.143794 -2.7275096,0.575164 -4.5023395,1.294109 -0.2784086,0.49428 -0.5350635,0.96609 -0.7699651,1.415431 -0.4611114,0.898686 -0.7090661,1.379483 -0.7438648,1.442391 -0.4089097,0.647054 -0.7786664,0.97058 -1.1092719,0.970581 -0.3132066,-1e-6 -0.4698096,-0.296568 -0.4698093,-0.889699 -3e-7,-0.08988 0.00435,-0.170751 0.01305,-0.242646 0.060901,-0.278592 0.4306578,-1.091902 1.109272,-2.439932 0.504608,-0.997538 0.9439661,-1.837809 1.3180761,-2.520814 1.0266163,-1.86926 1.7791805,-3.16786 2.257695,-3.895804 1.235418,-1.851284 2.2315865,-2.776929 2.9885095,-2.77694 1.096211,1.1e-5 1.631271,1.747954 1.60518,5.243832 m -1.683481,-1.213226 c -0.104411,-0.709954 -0.265362,-1.064934 -0.482859,-1.064943 -0.4872164,9e-6 -1.3441833,1.100898 -2.570901,3.302672 0.7308091,-0.143783 1.7748274,-0.395417 3.132063,-0.754897 -7e-6,-0.593125 -0.02612,-1.087402 -0.0783,-1.482832" />
    <path
       inkscape:connector-curvature="0"
       id="path3114"
       style="font-style:normal;font-variant:normal;font-weight:bold;font-stretch:normal;font-size:11.8841px;line-height:125%;font-family:'A.C.M.E. Secret Agent';-inkscape-font-specification:'Sans Bold';letter-spacing:0px;word-spacing:0px;fill:#000000;fill-opacity:1;stroke:none;stroke-width:1.14286"
       d="m 22.326202,22.281196 c 0.01739,-0.09884 0.06089,-0.23365 0.130503,-0.404409 0.0783,-0.179729 0.126142,-0.314531 0.143552,-0.404409 0.09569,-0.449333 0.02174,-0.674005 -0.221855,-0.674014 -0.05221,9e-6 -0.130509,0.009 -0.234903,0.02696 -1.070128,0.161772 -1.905345,0.368471 -2.50565,0.620094 -0.809121,0.341508 -1.526884,0.876226 -2.153292,1.604154 -0.948321,1.087417 -1.526883,2.152357 -1.735685,3.194829 -0.0609,0.287583 -0.09135,0.561681 -0.09135,0.822297 -1e-6,0.970583 0.421956,1.644598 1.265875,2.022044 0.217501,0.107839 0.461105,0.161765 0.730813,0.161763 0.504606,2e-6 1.122319,-0.175242 1.853138,-0.52573 0.365401,-0.17075 0.935262,-0.494276 1.709584,-0.970581 0.574203,-0.341498 0.92656,-0.512249 1.05707,-0.512251 0.260997,2e-6 0.391499,0.184234 0.391508,0.552692 -9e-6,0.620094 -0.287113,1.096397 -0.861316,1.42891 -0.791724,0.458331 -1.64869,0.840272 -2.570901,1.145825 -1.017925,0.332513 -1.900992,0.498769 -2.649203,0.49877 -1.000521,-1e-6 -1.753085,-0.278593 -2.257694,-0.835778 -0.469809,-0.521238 -0.704715,-1.235692 -0.704715,-2.143366 0,-1.258157 0.408909,-2.624157 1.226724,-4.098008 0.843917,-1.518772 1.909686,-2.767943 3.197315,-3.747519 1.444222,-1.087401 2.9276,-1.631105 4.450137,-1.631118 0.800406,1.3e-5 1.474668,0.121335 2.02279,0.363968 0.330595,0.143803 0.495899,0.368473 0.495909,0.674016 -10e-6,0.440366 -0.265365,1.033499 -0.796066,1.779398 -0.495919,0.709969 -0.948327,1.186273 -1.357226,1.428911 -0.104411,0.06292 -0.191413,0.09436 -0.261005,0.09436 -0.113109,8e-6 -0.191413,-0.05391 -0.234905,-0.161764 -0.04351,-0.107839 -0.05656,-0.211183 -0.03916,-0.310046" />
    <path
       inkscape:connector-curvature="0"
       id="path3116"
       style="font-style:normal;font-variant:normal;font-weight:bold;font-stretch:normal;font-size:11.8841px;line-height:125%;font-family:'A.C.M.E. Secret Agent';-inkscape-font-specification:'Sans Bold';letter-spacing:0px;word-spacing:0px;fill:#000000;fill-opacity:1;stroke:none;stroke-width:1.14286"
       d="m 25.393014,28.482129 c 0.461108,-1.923185 0.813464,-3.868838 1.057072,-5.836965 0.0435,-0.727928 0.143551,-1.734455 0.300154,-3.019586 0.0957,-0.476292 0.400206,-0.69647 0.913519,-0.660534 1.357222,-0.449331 2.505643,-0.674002 3.445267,-0.674015 0.870011,1.3e-5 1.626925,0.197723 2.270745,0.593134 0.756905,0.467327 1.135364,1.114381 1.135373,1.941162 -9e-6,0.188733 -0.02176,0.386442 -0.06525,0.593133 -0.295815,1.473852 -1.326785,2.745491 -3.092912,3.814922 0.765608,0.395426 1.148415,1.024505 1.148423,1.887241 -8e-6,0.179738 -0.0174,0.359475 -0.05221,0.539211 -0.208812,0.997542 -0.796074,1.815346 -1.761784,2.453413 -0.870024,0.593131 -1.79224,0.889699 -2.766657,0.8897 -0.452411,-1e-6 -0.94397,-0.06741 -1.474677,-0.202206 -0.574213,-0.143791 -1.022271,-0.32802 -1.344178,-0.55269 C 24.897101,30.095271 24.7927,29.79421 24.7927,29.344868 c 0,-0.575159 0.169652,-0.862736 0.50896,-0.862739 0.03481,3e-6 0.06525,3e-6 0.09135,0 m 3.158163,-7.346757 c -0.0696,0.42239 -0.20881,1.055963 -0.417609,1.90072 -0.208807,0.844772 -0.352361,1.482837 -0.430659,1.914202 0.904814,-0.170745 1.818332,-0.539207 2.740554,-1.105385 1.539924,-0.961586 2.309888,-1.774896 2.309897,-2.439932 -9e-6,-0.449334 -0.439367,-0.674004 -1.318077,-0.674014 -0.71342,10e-6 -1.674788,0.13481 -2.884106,0.404409 m -0.691665,8.249937 c 0.530707,0 1.078817,-0.134801 1.644333,-0.40441 0.687308,-0.332511 1.030964,-0.736919 1.03097,-1.213225 -6e-6,-0.611104 -0.830872,-0.916656 -2.492598,-0.91666 -0.191407,4e-6 -0.391511,0.0045 -0.600312,0.01349 -0.121805,0.952609 -0.221858,1.765919 -0.300157,2.439931 0.234902,0.05392 0.474157,0.08088 0.717764,0.08088" />
    <path
       inkscape:connector-curvature="0"
       id="path3118"
       style="font-style:normal;font-variant:normal;font-weight:bold;font-stretch:normal;font-size:11.8841px;line-height:125%;font-family:'A.C.M.E. Secret Agent';-inkscape-font-specification:'Sans Bold';letter-spacing:0px;word-spacing:0px;fill:#000000;fill-opacity:1;stroke:none;stroke-width:1.14286"
       d="m 42.410548,27.080179 c -1.505135,3e-6 -3.301718,0.395425 -5.389757,1.186266 -0.121803,0.871726 -0.217504,1.667063 -0.287105,2.386011 -0.304508,0.368461 -0.613363,0.552692 -0.926567,0.552693 -0.565512,-10e-7 -0.848268,-0.390929 -0.848268,-1.172787 0,-0.350486 0.0609,-0.790842 0.182704,-1.321067 0.0783,-0.332513 0.156603,-0.66952 0.234904,-1.011023 0.295806,-1.410933 0.52201,-2.709533 0.678614,-3.895804 0.0609,-0.826784 0.182702,-1.96362 0.365406,-3.410513 0.0957,-0.476293 0.395857,-0.691978 0.900468,-0.647054 2.235941,-0.880701 4.076024,-1.321056 5.52026,-1.321067 0.626404,1.1e-5 1.070113,0.05842 1.331125,0.175243 0.365398,0.161774 0.548102,0.476314 0.548113,0.94362 -1.1e-5,0.161774 -0.02176,0.346004 -0.06525,0.552691 -0.04351,0.197722 -0.130512,0.390938 -0.261006,0.579653 -0.165312,0.233668 -0.334966,0.350496 -0.50896,0.350488 -0.05221,8e-6 -0.156613,-0.01796 -0.313206,-0.05392 -0.374117,-0.09884 -0.787374,-0.148274 -1.239775,-0.148283 -1.374633,9e-6 -2.85801,0.386442 -4.450136,1.159305 L 37.334,25.934356 c 0.774311,-0.09884 1.75743,-0.287576 2.949358,-0.566173 1.86183,-0.431364 2.857998,-0.660528 2.98851,-0.687495 0.4698,0.08988 0.704704,0.48979 0.704713,1.199746 -9e-6,0.125821 -0.0087,0.247144 -0.0261,0.363968 -0.04351,0.188729 -0.130511,0.377453 -0.261006,0.566173 -0.16531,0.233661 -0.339314,0.35049 -0.522009,0.350488 -0.07831,2e-6 -0.204461,-0.01347 -0.378457,-0.04044 -0.165311,-0.02696 -0.291464,-0.04043 -0.378459,-0.04045" />
  </g>
</svg>
